<svg width="120" height="84" viewBox="0 0 120 84" fill="none" xmlns="http://www.w3.org/2000/svg">
<path d="M120 73.5V10.5C120 4.69 115.31 0 109.5 0H11.43C5.61999 0 0.929993 4.69 0.929993 10.5V73.5C0.929993 79.31 5.61999 84 11.43 84H109.5C115.31 84 120 79.31 120 73.5ZM110.83 9.73C113.14 12.04 111.88 14.42 110.62 15.61L82.2 41.65L109.5 70.07C110.34 71.05 110.9 72.59 109.92 73.64C109.01 74.76 106.91 74.69 106 73.99L75.41 47.88L60.43 61.53L45.52 47.88L14.93 73.99C14.02 74.69 11.92 74.76 11.01 73.64C10.03 72.59 10.59 71.05 11.43 70.07L38.73 41.65L10.31 15.61C9.04999 14.42 7.78999 12.04 10.1 9.73C12.41 7.42 14.79 8.54 16.75 10.22L60.43 45.5L104.18 10.22C106.14 8.54 108.52 7.42 110.83 9.73Z" fill="black"/>
</svg>
