<svg width="96" height="68" viewBox="0 0 96 68" fill="none" xmlns="http://www.w3.org/2000/svg">
<path d="M58.9352 37.074C59.5538 37.7382 59.8994 38.6133 59.8994 39.5241C59.8994 40.4775 59.5206 41.3919 58.8465 42.066C58.1723 42.7402 57.2579 43.119 56.3045 43.119C55.3511 43.119 54.4367 42.7402 53.7625 42.066L50.3125 38.6208L53.7601 42.0684L53.848 42.1564L50.447 45.5574L58.9352 37.074ZM58.9352 37.074L62.3297 33.6748L58.9352 37.074ZM11.7711 33.5003L11.8097 33.5417L11.7711 33.5831C10.2531 35.2121 9.4267 37.3668 9.46598 39.5932C9.50526 41.8196 10.4072 43.9438 11.9817 45.5183C13.5562 47.0928 15.6804 47.9947 17.9068 48.034C20.1332 48.0733 22.2879 47.2469 23.9169 45.7289L23.9581 45.6905C24.739 46.4496 25.6573 47.0537 26.6643 47.4702C27.7075 47.9018 28.8254 48.1236 29.9544 48.1231C31.0833 48.1225 32.201 47.8996 33.2438 47.4671C34.2866 47.0346 35.234 46.401 36.0319 45.6023C36.4145 45.2193 36.7592 44.802 37.0619 44.3563C37.3799 44.8379 37.7464 45.2874 38.1566 45.6976C38.9726 46.5136 39.9447 47.157 41.0148 47.5892C42.0848 48.0214 43.231 48.2337 44.3849 48.2133C45.5388 48.193 46.6767 47.9404 47.7309 47.4707C48.6958 47.0408 49.5723 46.437 50.3171 45.6904C51.9199 47.2467 54.0672 48.119 56.3045 48.119C58.584 48.119 60.7701 47.2134 62.382 45.6016C62.5599 45.4237 62.7292 45.2388 62.8896 45.0476C63.0516 45.2411 63.2226 45.4281 63.4025 45.6079C65.0141 47.2196 67.2 48.125 69.4792 48.125H77.8646C80.1438 48.125 82.3297 47.2196 83.9413 45.6079C85.5529 43.9963 86.4583 41.8105 86.4583 39.5313C86.4583 37.2521 85.5529 35.0662 83.9413 33.4546C82.3297 31.8429 80.1438 30.9375 77.8646 30.9375H69.4792C67.2 30.9375 65.0141 31.8429 63.4025 33.4546C63.2248 33.6322 63.0558 33.8168 62.8956 34.0077C62.7603 33.8461 62.6186 33.6889 62.4708 33.5367C63.213 32.794 63.8135 31.9208 64.2415 30.9601C64.7112 29.9059 64.9638 28.7679 64.9841 27.614C65.0045 26.4601 64.7922 25.314 64.36 24.2439C63.9278 23.1738 63.2845 22.2018 62.4684 21.3857C61.6524 20.5697 60.6804 19.9264 59.6103 19.4942C58.5402 19.0619 57.394 18.8497 56.2401 18.87C55.0862 18.8904 53.9483 19.143 52.8941 19.6126C51.9302 20.0421 51.0544 20.6451 50.3101 21.3907L50.2711 21.3544C48.642 19.8365 46.4873 19.01 44.261 19.0493C42.0346 19.0886 39.9104 19.9905 38.3359 21.565C37.9421 21.9588 37.5904 22.3869 37.2838 22.8424C36.9489 22.3171 36.557 21.8285 36.1143 21.3857C35.2982 20.5697 34.3262 19.9264 33.2561 19.4942C32.186 19.0619 31.0399 18.8497 29.886 18.87C28.7321 18.8904 27.5941 19.143 26.5399 19.6126C25.576 20.0421 24.7003 20.6451 23.9559 21.3907L23.9169 21.3544C22.2879 19.8365 20.1332 19.01 17.9068 19.0493C15.6804 19.0886 13.5562 19.9905 11.9817 21.565C10.4072 23.1396 9.50526 25.2638 9.46598 27.4901C9.4267 29.7165 10.2531 31.8712 11.7711 33.5003ZM37.1251 34.7911C36.8296 34.3433 36.4921 33.9232 36.1167 33.5367C36.5073 33.1458 36.8587 32.7187 37.1663 32.2618C37.4457 32.7 37.7661 33.1149 38.1253 33.5003L38.1616 33.5392C37.7767 33.9235 37.4298 34.3428 37.1251 34.7911ZM8.09674 8.09674C10.0795 6.11393 12.7688 5 15.5729 5H80.2604C81.6489 5 83.0237 5.27348 84.3065 5.80482C85.5893 6.33616 86.7548 7.11495 87.7366 8.09674C88.7184 9.07852 89.4972 10.2441 90.0285 11.5268C90.5599 12.8096 90.8333 14.1845 90.8333 15.5729V51.5104C90.8333 52.8989 90.5599 54.2737 90.0285 55.5565C89.4972 56.8393 88.7184 58.0048 87.7366 58.9866C86.7548 59.9684 85.5893 60.7472 84.3065 61.2785C83.0237 61.8099 81.6489 62.0833 80.2604 62.0833H15.5729C12.7688 62.0833 10.0795 60.9694 8.09674 58.9866C6.11393 57.0038 5 54.3145 5 51.5104V15.5729C5 12.7688 6.11393 10.0795 8.09674 8.09674Z" fill="black" stroke="black" stroke-width="10"/>
</svg>
